<?xml version="1.0" encoding="iso-8859-1"?>
<!-- Generator: Adobe Illustrator 19.0.0, SVG Export Plug-In . SVG Version: 6.00 Build 0)  -->
<svg version="1.1" id="Layer_1" xmlns="http://www.w3.org/2000/svg" xmlns:xlink="http://www.w3.org/1999/xlink" x="0px" y="0px"
	 viewBox="0 0 511.181 511.181" style="enable-background:new 0 0 511.181 511.181;" xml:space="preserve">
<g transform="translate(1 1)">
	<polygon style="fill:#FFE100;" points="356.991,100.547 254.591,6.68 152.191,100.547 152.191,237.08 254.591,134.68 
		356.991,237.08 	"/>
	<polyline style="fill:#FFFFFF;" points="152.191,237.08 152.191,102.253 126.591,126.147 126.591,262.68 	"/>
	<polygon style="fill:#FFA800;" points="356.991,102.253 356.991,237.08 382.591,262.68 382.591,126.147 	"/>
	<polygon style="fill:#63D3FD;" points="356.991,339.48 254.591,245.613 152.191,339.48 152.191,476.013 254.591,373.613 
		356.991,476.013 	"/>
	<polyline style="fill:#FFFFFF;" points="152.191,476.013 152.191,341.187 126.591,365.08 126.591,501.613 	"/>
	<polygon style="fill:#3DB9F9;" points="356.991,341.187 356.991,476.013 382.591,501.613 382.591,365.08 	"/>
	<path d="M382.591,271.213c-2.56,0-4.267-0.853-5.973-2.56L254.591,146.627L132.564,268.653c-2.56,2.56-5.973,3.413-9.387,1.707
		c-3.413-0.853-5.12-4.267-5.12-7.68V126.147c0-2.56,0.853-4.267,2.56-5.973l42.667-40.107c3.413-3.413,8.533-3.413,11.947,0
		c3.413,3.413,3.413,8.533,0,11.947l-40.107,37.547V242.2l113.493-113.493c3.413-3.413,8.533-3.413,11.947,0L374.057,242.2V129.56
		L254.591,18.627l-30.72,29.013c-3.413,3.413-8.533,3.413-11.947,0s-3.413-8.533,0-11.947L248.617,1.56
		c3.413-3.413,8.533-3.413,11.947,0l128,119.467c1.707,1.707,2.56,4.267,2.56,5.973v136.533c0,3.413-1.707,6.827-5.12,7.68
		C385.151,271.213,383.444,271.213,382.591,271.213z"/>
	<path d="M200.831,62.147c0-5.12-3.413-8.533-8.533-8.533c-5.12,0-8.533,3.413-8.533,8.533s3.413,8.533,8.533,8.533
		C197.417,70.68,200.831,67.267,200.831,62.147"/>
	<path d="M382.591,510.147c-2.56,0-4.267-0.853-5.973-2.56L254.591,385.56L132.564,507.587c-2.56,2.56-5.973,3.413-9.387,1.707
		c-3.413-0.853-5.12-4.267-5.12-7.68V365.08c0-2.56,0.853-4.267,2.56-5.973l128-119.467c3.413-3.413,8.533-3.413,11.947,0
		l128,119.467c1.707,1.707,2.56,4.267,2.56,5.973v136.533c0,3.413-1.707,6.827-5.12,7.68
		C385.151,510.147,383.444,510.147,382.591,510.147z M254.591,365.08c2.56,0,4.267,0.853,5.973,2.56l113.493,113.493v-112.64
		L254.591,257.56L135.124,368.493v112.64L248.617,367.64C250.324,365.933,252.031,365.08,254.591,365.08z"/>
</g>
<g>
</g>
<g>
</g>
<g>
</g>
<g>
</g>
<g>
</g>
<g>
</g>
<g>
</g>
<g>
</g>
<g>
</g>
<g>
</g>
<g>
</g>
<g>
</g>
<g>
</g>
<g>
</g>
<g>
</g>
</svg>
