<?xml version="1.0" standalone="no"?>
<!DOCTYPE svg PUBLIC "-//W3C//DTD SVG 20010904//EN"
 "http://www.w3.org/TR/2001/REC-SVG-20010904/DTD/svg10.dtd">
<svg version="1.0" xmlns="http://www.w3.org/2000/svg"
 width="640.000000pt" height="640.000000pt" viewBox="0 0 640.000000 640.000000"
 preserveAspectRatio="xMidYMid meet">

<g transform="translate(0.000000,640.000000) scale(0.100000,-0.100000)"
fill="#000000" stroke="none">
<path d="M3878 5139 c-65 -15 -154 -66 -217 -125 -46 -42 -72 -77 -103 -141
-41 -83 -42 -87 -46 -207 l-4 -121 -48 -27 c-82 -46 -150 -150 -150 -229 l0
-29 -68 0 -68 0 -34 70 c-45 93 -79 125 -131 125 -34 0 -46 -6 -70 -33 -18
-20 -29 -43 -29 -62 0 -36 108 -256 139 -284 19 -17 41 -21 141 -24 l120 -4 0
-194 0 -194 -110 0 c-152 0 -155 -2 -230 -151 -70 -140 -74 -172 -31 -218 23
-25 37 -31 69 -31 55 0 80 24 127 119 l39 82 79 -3 78 -3 26 -65 c62 -154 182
-283 335 -360 111 -56 203 -74 346 -68 205 9 358 79 492 225 57 62 150 223
150 259 0 11 18 14 80 14 l79 0 46 -89 c47 -92 69 -111 125 -111 38 0 88 45
96 85 4 23 -8 57 -54 151 -80 161 -84 164 -228 164 l-114 0 0 194 0 193 114 5
c80 3 121 9 137 20 14 9 50 68 88 146 61 125 63 132 51 167 -15 46 -63 78
-104 70 -51 -9 -75 -33 -116 -115 l-40 -80 -64 0 -65 0 -11 57 c-7 32 -19 69
-28 83 -27 44 -86 101 -124 121 l-38 19 0 78 c-1 159 -48 287 -143 383 -103
105 -210 149 -357 148 -52 -1 -112 -5 -132 -10z m256 -219 c57 -29 111 -81
139 -135 15 -29 22 -65 25 -132 l4 -93 -296 0 -296 0 0 70 c0 138 68 247 185
296 76 31 168 29 239 -6z m336 -596 l31 -27 -3 -386 -3 -386 -37 -78 c-98
-204 -313 -316 -536 -277 -202 34 -370 197 -401 390 -6 36 -11 212 -11 396 l0
332 29 31 29 31 435 0 435 0 32 -26z"/>
<path d="M2394 2959 c-152 -152 -164 -162 -205 -166 -71 -7 -113 -21 -156 -50
-53 -37 -1136 -1026 -1197 -1094 -92 -102 -136 -223 -136 -374 0 -169 48 -286
169 -406 118 -119 238 -170 398 -170 176 -1 294 50 429 185 170 171 1046 1141
1066 1180 11 21 24 68 30 105 l10 66 161 163 c127 127 159 165 147 172 -8 4
-46 31 -85 59 l-70 51 -127 -127 -128 -128 -137 138 -138 137 126 127 127 128
-54 74 c-30 41 -54 78 -54 83 0 20 -24 -1 -176 -153z m-128 -398 c44 -32 282
-273 307 -311 20 -29 21 -66 4 -96 -16 -28 -1026 -1133 -1069 -1169 -18 -16
-58 -40 -88 -54 -46 -21 -70 -25 -145 -25 -77 0 -99 4 -150 27 -79 37 -156
113 -192 191 -24 53 -27 73 -27 151 1 97 20 156 70 223 35 45 1139 1053 1177
1075 44 24 68 21 113 -12z"/>
</g>
</svg>
